<?xml version="1.0" standalone="no"?>
<!DOCTYPE svg PUBLIC "-//W3C//DTD SVG 20010904//EN"
 "http://www.w3.org/TR/2001/REC-SVG-20010904/DTD/svg10.dtd">
<svg version="1.0" xmlns="http://www.w3.org/2000/svg"
 width="1024.000000pt" height="1024.000000pt" viewBox="0 0 1024.000000 1024.000000"
 preserveAspectRatio="xMidYMid meet">
<metadata>
Created by potrace 1.14, written by Peter Selinger 2001-2017
</metadata>
<g transform="translate(0.000000,1024.000000) scale(0.100000,-0.100000)"
fill="#000000" stroke="none">
<path d="M542 8669 c-87 -34 -149 -107 -177 -208 -9 -30 -9 -6354 0 -6401 20
-115 55 -193 123 -278 96 -119 218 -197 352 -222 51 -9 1018 -12 4410 -12
2390 0 4365 3 4389 6 62 9 138 53 178 105 60 79 65 114 65 474 0 177 -3 343
-7 367 -15 88 -73 167 -158 212 l-42 23 -4062 3 -4063 2 -1 2843 c0 1563 -3
2856 -5 2872 -14 85 -80 170 -162 208 -45 21 -59 22 -417 24 -350 2 -373 1
-423 -18z"/>
<path d="M8245 8667 c-55 -26 -109 -81 -133 -136 -14 -32 -16 -265 -16 -2211
1 -1607 4 -2185 12 -2215 15 -53 62 -108 120 -143 l47 -27 400 -2 c288 -2 411
1 439 9 58 18 131 89 154 149 18 48 18 126 18 2227 l-1 2177 -21 45 c-24 52
-72 102 -123 127 -33 16 -75 18 -441 21 l-405 2 -50 -23z"/>
<path d="M4715 8088 c-79 -17 -166 -104 -182 -183 -5 -22 -8 -881 -8 -1910 1
-1671 3 -1874 17 -1906 22 -50 74 -106 122 -132 40 -22 48 -22 456 -22 l415 0
47 27 c58 35 105 90 120 143 14 47 19 3720 6 3795 -15 80 -97 167 -178 186
-45 10 -766 12 -815 2z"/>
<path d="M6511 6898 c-70 -12 -137 -63 -174 -133 l-22 -40 0 -1305 c0 -1252 1
-1307 19 -1342 23 -46 78 -102 126 -125 31 -16 76 -18 424 -21 445 -3 462 -1
533 68 86 82 78 -57 81 1403 l2 1298 -21 49 c-12 28 -39 66 -61 86 -76 68 -72
67 -488 68 -207 1 -395 -2 -419 -6z"/>
<path d="M2917 5703 c-58 -17 -125 -77 -153 -137 l-24 -51 0 -695 c1 -781 -4
-734 76 -814 75 -75 71 -74 508 -75 433 -2 450 0 517 63 20 18 47 51 60 72
l24 39 0 715 0 715 -27 46 c-15 26 -42 59 -60 74 -69 58 -69 58 -491 59 -281
1 -399 -2 -430 -11z"/>
</g>
</svg>
